<svg width="374" height="439" viewBox="0 0 374 439" fill="none" xmlns="http://www.w3.org/2000/svg">
<ellipse cx="186.5" cy="358.5" rx="163.5" ry="21.5" fill="url(#paint0_radial_1_70)"/>
<g filter="url(#filter0_d_1_70)">
<path d="M191.941 350.054C115.777 350.054 60.5485 293.02 60.5485 218.661C60.5485 144.301 115.777 87.2681 191.941 87.2681C237.784 87.2681 278.213 110.009 300.232 145.745L250.418 174.623C239.228 155.13 217.57 143.579 191.941 143.579C147.181 143.579 118.304 173.54 118.304 218.661C118.304 263.782 147.181 293.742 191.941 293.742C217.57 293.742 239.589 282.191 250.418 262.699L300.232 291.577C278.574 327.313 238.145 350.054 191.941 350.054Z" fill="url(#paint1_radial_1_70)"/>
</g>
<g filter="url(#filter1_i_1_70)">
<path d="M103.072 122.323C103.072 146.64 83.359 166.353 59.0418 166.353C34.7247 166.353 15.0117 146.64 15.0117 122.323C15.0117 110.424 19.6847 101.477 27.0018 95.2723C34.5534 88.8687 45.7005 84.7903 59.0418 84.7903C72.3831 84.7903 83.5303 88.8687 91.0819 95.2723C98.3989 101.477 103.072 110.424 103.072 122.323Z" stroke="#092C4C" stroke-width="30.0234"/>
</g>
<defs>
<filter id="filter0_d_1_70" x="58.2885" y="87.2681" width="244.203" height="267.305" filterUnits="userSpaceOnUse" color-interpolation-filters="sRGB">
<feFlood flood-opacity="0" result="BackgroundImageFix"/>
<feColorMatrix in="SourceAlpha" type="matrix" values="0 0 0 0 0 0 0 0 0 0 0 0 0 0 0 0 0 0 127 0" result="hardAlpha"/>
<feOffset dy="2.25997"/>
<feGaussianBlur stdDeviation="1.12999"/>
<feComposite in2="hardAlpha" operator="out"/>
<feColorMatrix type="matrix" values="0 0 0 0 0 0 0 0 0 0 0 0 0 0 0 0 0 0 0.25 0"/>
<feBlend mode="normal" in2="BackgroundImageFix" result="effect1_dropShadow_1_70"/>
<feBlend mode="normal" in="SourceGraphic" in2="effect1_dropShadow_1_70" result="shape"/>
</filter>
<filter id="filter1_i_1_70" x="0" y="69.7786" width="118.084" height="124.016" filterUnits="userSpaceOnUse" color-interpolation-filters="sRGB">
<feFlood flood-opacity="0" result="BackgroundImageFix"/>
<feBlend mode="normal" in="SourceGraphic" in2="BackgroundImageFix" result="shape"/>
<feColorMatrix in="SourceAlpha" type="matrix" values="0 0 0 0 0 0 0 0 0 0 0 0 0 0 0 0 0 0 127 0" result="hardAlpha"/>
<feOffset dy="12.5098"/>
<feGaussianBlur stdDeviation="6.21493"/>
<feComposite in2="hardAlpha" operator="arithmetic" k2="-1" k3="1"/>
<feColorMatrix type="matrix" values="0 0 0 0 0 0 0 0 0 0 0 0 0 0 0 0 0 0 0.13 0"/>
<feBlend mode="normal" in2="shape" result="effect1_innerShadow_1_70"/>
</filter>
<radialGradient id="paint0_radial_1_70" cx="0" cy="0" r="1" gradientUnits="userSpaceOnUse" gradientTransform="translate(186.5 358.5) rotate(90) scale(21.5 163.5)">
<stop stop-opacity="0.11"/>
<stop offset="1" stop-opacity="0"/>
</radialGradient>
<radialGradient id="paint1_radial_1_70" cx="0" cy="0" r="1" gradientUnits="userSpaceOnUse" gradientTransform="translate(138.706 149.158) rotate(63.2709) scale(176.493 132.675)">
<stop stop-color="#F2994A"/>
<stop offset="1" stop-color="#EC7620"/>
</radialGradient>
</defs>
</svg>
