<svg width="846" height="330" viewBox="0 0 846 330" fill="none" xmlns="http://www.w3.org/2000/svg">
<g filter="url(#filter0_d_1_49)">
<path d="M144.284 262.799C87.0304 262.799 45.5148 219.927 45.5148 164.03C45.5148 108.133 87.0304 65.2608 144.284 65.2608C178.744 65.2608 209.135 82.3554 225.687 109.218L188.241 130.926C179.83 116.273 163.549 107.59 144.284 107.59C110.637 107.59 88.9298 130.112 88.9298 164.03C88.9298 197.948 110.637 220.469 144.284 220.469C163.549 220.469 180.101 211.786 188.241 197.134L225.687 218.841C209.406 245.704 179.016 262.799 144.284 262.799Z" fill="url(#paint0_radial_1_49)"/>
</g>
<g filter="url(#filter1_i_1_49)">
<path d="M77.48 91.9505C77.48 110.23 62.6617 125.048 44.3822 125.048C26.1028 125.048 11.2844 110.23 11.2844 91.9505C11.2844 83.006 14.7972 76.2803 20.2975 71.6162C25.9741 66.8026 34.3535 63.7368 44.3822 63.7368C54.411 63.7368 62.7904 66.8026 68.467 71.6162C73.9673 76.2803 77.48 83.006 77.48 91.9505Z" stroke="#092C4C" stroke-width="22.5689"/>
</g>
<path d="M328.154 172.705L330.585 159.133H356.717L338.891 260.421H312.759L314.379 251.102C305.601 259.205 294.392 263.257 280.752 263.257C265.626 263.257 254.282 257.652 246.719 246.443C239.291 235.369 236.995 222.336 239.831 207.346C242.532 192.895 249.015 180.808 259.279 171.085C269.678 161.226 282.237 156.297 296.958 156.297C311.273 156.297 321.672 161.766 328.154 172.705ZM288.855 238.34C296.688 238.34 303.643 235.841 309.72 230.845C315.797 225.848 319.714 219.365 321.469 211.397L321.874 208.156C322.955 200.053 321.267 193.571 316.81 188.709C312.353 183.712 306.209 181.214 298.376 181.214C290.273 181.214 283.183 183.78 277.105 188.911C271.163 194.043 267.449 200.931 265.964 209.574C264.478 218.082 265.896 225.037 270.218 230.439C274.539 235.706 280.752 238.34 288.855 238.34ZM389.12 260.421H362.988L374.129 196.812L388.917 112.541H415.05L400.059 197.825L389.12 260.421ZM542.479 156.297C554.093 156.297 562.804 160.146 568.611 167.844C574.688 175.677 576.647 185.738 574.486 198.027L563.344 260.421H537.212L547.746 199.85C548.826 193.773 548.151 189.046 545.72 185.67C543.424 182.294 539.575 180.606 534.173 180.606C522.829 180.606 515.401 187.021 511.89 199.85L501.356 260.421H475.224L485.758 199.85C486.838 193.773 486.163 189.046 483.732 185.67C481.436 182.294 477.655 180.606 472.388 180.606C466.311 180.606 461.246 182.564 457.195 186.481C453.143 190.262 450.51 195.731 449.294 202.889L439.165 260.421H413.033L430.86 159.133H456.992L455.169 169.262C463.002 160.618 472.793 156.297 484.542 156.297C496.967 156.297 505.543 161.361 510.269 171.49C518.507 161.361 529.244 156.297 542.479 156.297ZM604.995 130.975C605.671 126.518 607.832 122.737 611.478 119.631C615.124 116.389 619.176 114.769 623.632 114.769C628.089 114.769 631.6 116.389 634.166 119.631C636.867 122.872 637.88 126.653 637.205 130.975C636.395 135.432 634.166 139.213 630.52 142.319C626.874 145.425 622.822 146.978 618.365 146.978C613.909 146.978 610.398 145.425 607.832 142.319C605.266 139.078 604.32 135.297 604.995 130.975ZM611.275 260.421H585.143L602.97 159.133H629.102L611.275 260.421ZM715.211 115.782L710.754 140.901C696.574 139.956 688.403 145.695 686.242 158.12L686.04 159.133H707.513L703.056 184.252H681.583L668.213 260.421H642.081L655.451 184.252H641.068L645.322 159.133H659.908L660.11 158.12C662.676 143.4 668.551 132.46 677.734 125.303C687.053 118.01 699.545 114.836 715.211 115.782ZM754.031 227.401L788.671 159.133H817.639L762.944 260.421C754.841 275.546 745.928 286.215 736.204 292.427C726.48 298.775 715.136 301.611 702.171 300.936L706.426 276.627C713.583 276.762 719.255 275.411 723.442 272.575C727.628 269.874 731.545 264.945 735.191 257.787L735.799 256.774L712.3 159.133H739.04L754.031 227.401ZM808.436 263.054C803.71 263.054 799.996 261.366 797.295 257.99C794.594 254.478 793.648 250.292 794.459 245.43C795.269 240.568 797.565 236.584 801.346 233.478C805.128 230.237 809.517 228.616 814.514 228.616C819.24 228.616 823.022 230.372 825.858 233.883C828.694 237.394 829.639 241.513 828.694 246.24C827.884 251.102 825.588 255.154 821.806 258.395C818.025 261.501 813.568 263.054 808.436 263.054Z" fill="#092C4C"/>
<defs>
<filter id="filter0_d_1_49" x="43.816" y="65.2608" width="183.57" height="200.936" filterUnits="userSpaceOnUse" color-interpolation-filters="sRGB">
<feFlood flood-opacity="0" result="BackgroundImageFix"/>
<feColorMatrix in="SourceAlpha" type="matrix" values="0 0 0 0 0 0 0 0 0 0 0 0 0 0 0 0 0 0 127 0" result="hardAlpha"/>
<feOffset dy="1.69884"/>
<feGaussianBlur stdDeviation="0.849421"/>
<feComposite in2="hardAlpha" operator="out"/>
<feColorMatrix type="matrix" values="0 0 0 0 0 0 0 0 0 0 0 0 0 0 0 0 0 0 0.25 0"/>
<feBlend mode="normal" in2="BackgroundImageFix" result="effect1_dropShadow_1_49"/>
<feBlend mode="normal" in="SourceGraphic" in2="effect1_dropShadow_1_49" result="shape"/>
</filter>
<filter id="filter1_i_1_49" x="0" y="52.4524" width="88.7645" height="93.2239" filterUnits="userSpaceOnUse" color-interpolation-filters="sRGB">
<feFlood flood-opacity="0" result="BackgroundImageFix"/>
<feBlend mode="normal" in="SourceGraphic" in2="BackgroundImageFix" result="shape"/>
<feColorMatrix in="SourceAlpha" type="matrix" values="0 0 0 0 0 0 0 0 0 0 0 0 0 0 0 0 0 0 127 0" result="hardAlpha"/>
<feOffset dy="9.40369"/>
<feGaussianBlur stdDeviation="4.67182"/>
<feComposite in2="hardAlpha" operator="arithmetic" k2="-1" k3="1"/>
<feColorMatrix type="matrix" values="0 0 0 0 0 0 0 0 0 0 0 0 0 0 0 0 0 0 0.13 0"/>
<feBlend mode="normal" in2="shape" result="effect1_innerShadow_1_49"/>
</filter>
<radialGradient id="paint0_radial_1_49" cx="0" cy="0" r="1" gradientUnits="userSpaceOnUse" gradientTransform="translate(104.266 112.124) rotate(63.2709) scale(132.671 99.7331)">
<stop stop-color="#F2994A"/>
<stop offset="1" stop-color="#EC7620"/>
</radialGradient>
</defs>
</svg>
