<svg width="82" height="81" viewBox="0 0 82 81" fill="none" xmlns="http://www.w3.org/2000/svg">
<circle cx="41" cy="40.5" r="40.5" fill="#F2B04D"/>
<circle cx="41" cy="40.5" r="40.5" fill="url(#paint0_linear_90_2827)" fill-opacity="0.2"/>
<path d="M57.4003 36.3779C57.4003 35.2439 57.064 34.1354 56.434 33.1926C55.804 32.2498 54.9086 31.5149 53.861 31.081C52.8134 30.647 51.6606 30.5335 50.5484 30.7547C49.4363 30.9759 48.4147 31.522 47.6129 32.3238C46.811 33.1256 46.265 34.1472 46.0438 35.2593C45.8225 36.3715 45.9361 37.5243 46.37 38.5719C46.804 39.6195 47.5388 40.515 48.4817 41.145C49.4245 41.7749 50.533 42.1112 51.6669 42.1112C53.1875 42.1112 54.6458 41.5072 55.721 40.4319C56.7962 39.3567 57.4003 37.8984 57.4003 36.3779ZM49.7558 36.3779C49.7558 35.9999 49.8679 35.6304 50.0779 35.3161C50.2879 35.0018 50.5864 34.7569 50.9356 34.6122C51.2848 34.4676 51.6691 34.4297 52.0398 34.5035C52.4105 34.5772 52.751 34.7592 53.0183 35.0265C53.2856 35.2938 53.4676 35.6343 53.5413 36.005C53.6151 36.3757 53.5772 36.76 53.4326 37.1092C53.2879 37.4584 53.043 37.7569 52.7287 37.9669C52.4144 38.1769 52.0449 38.289 51.6669 38.289C51.1601 38.289 50.674 38.0876 50.3156 37.7292C49.9572 37.3708 49.7558 36.8847 49.7558 36.3779Z" fill="white"/>
<path d="M51.6667 44.0223C50.4019 44.02 49.1492 44.2688 47.9813 44.7544C46.8134 45.2399 45.7535 45.9525 44.8631 46.8507C43.7625 44.4853 41.8882 42.5658 39.5495 41.4093C37.2109 40.2528 34.5478 39.9284 31.9999 40.4897C29.452 41.0509 27.1717 42.4643 25.5354 44.4963C23.8992 46.5284 23.0048 49.0578 23 51.6667V57.4001H61.2222V53.5778C61.2222 51.0435 60.2155 48.6131 58.4235 46.821C56.6315 45.029 54.201 44.0223 51.6667 44.0223ZM45.9333 53.5778C45.9333 52.0573 46.5374 50.599 47.6126 49.5238C48.6878 48.4485 50.1461 47.8445 51.6667 47.8445C53.1872 47.8445 54.6455 48.4485 55.7207 49.5238C56.796 50.599 57.4 52.0573 57.4 53.5778H45.9333Z" fill="white"/>
<path d="M34.4667 38.2889C38.6886 38.2889 42.1112 34.8664 42.1112 30.6444C42.1112 26.4225 38.6886 23 34.4667 23C30.2448 23 26.8223 26.4225 26.8223 30.6444C26.8223 34.8664 30.2448 38.2889 34.4667 38.2889Z" fill="white"/>
<defs>
<linearGradient id="paint0_linear_90_2827" x1="41" y1="21.5" x2="41" y2="101.5" gradientUnits="userSpaceOnUse">
<stop stop-opacity="0"/>
<stop offset="1"/>
</linearGradient>
</defs>
</svg>
